<svg width="20" height="20" viewBox="0 0 20 20" fill="none" xmlns="http://www.w3.org/2000/svg">
<g clip-path="url(#clip0_1636_2846)">
<path d="M14.9502 14.9502C13.5257 16.036 11.7911 16.6375 10.0002 16.6668C4.16683 16.6668 0.833496 10.0002 0.833496 10.0002C1.87007 8.06841 3.30778 6.38067 5.05016 5.05016M8.25016 3.5335C8.82377 3.39923 9.41105 3.33211 10.0002 3.3335C15.8335 3.3335 19.1668 10.0002 19.1668 10.0002C18.661 10.9465 18.0577 11.8374 17.3668 12.6585M11.7668 11.7668C11.538 12.0125 11.262 12.2095 10.9553 12.3461C10.6486 12.4827 10.3176 12.5562 9.9819 12.5621C9.64623 12.5681 9.3128 12.5063 9.0015 12.3806C8.69021 12.2548 8.40743 12.0677 8.17003 11.8303C7.93264 11.5929 7.74549 11.3101 7.61975 10.9988C7.49402 10.6875 7.43227 10.3541 7.43819 10.0184C7.44411 9.68274 7.51759 9.3517 7.65423 9.04503C7.79087 8.73837 7.98787 8.46237 8.2335 8.2335M0.833496 0.833496L19.1668 19.1668" stroke="white" stroke-width="2" stroke-linecap="round" stroke-linejoin="round"/>
</g>
<defs>
<clipPath id="clip0_1636_2846">
<rect width="20" height="20" fill="white"/>
</clipPath>
</defs>
</svg>
