<svg width="24" height="24" viewBox="0 0 24 24" fill="none" xmlns="http://www.w3.org/2000/svg">
<path d="M16.8113 2.46169C17.0368 2.0284 16.9163 1.49559 16.5263 1.20152C16.1362 0.907453 15.5908 0.938191 15.2363 1.27422L4.31207 11.6287C4.01498 11.9103 3.91951 12.3445 4.07108 12.7248C4.22265 13.105 4.59066 13.3545 5 13.3545H9.9259L5.22694 20.4477C4.9497 20.8662 5.02571 21.4254 5.4046 21.7548C5.7835 22.0841 6.34783 22.0814 6.72363 21.7486L19.663 10.2883C19.9741 10.0128 20.0824 9.57365 19.935 9.18514C19.7877 8.79662 19.4155 8.53968 19 8.53968H13.6478L16.8113 2.46169Z" stroke="currentColor" stroke-width="2" stroke-linejoin="round"/>
</svg>
