<svg width="16" height="14" viewBox="0 0 16 14" fill="none" xmlns="http://www.w3.org/2000/svg">
<path d="M13.6318 2.06089C13.3064 1.72455 12.92 1.45775 12.4948 1.27572C12.0696 1.09369 11.6138 1 11.1535 1C10.6932 1 10.2374 1.09369 9.8122 1.27572C9.38697 1.45775 9.00063 1.72455 8.67523 2.06089L7.99992 2.75857L7.32461 2.06089C6.66733 1.38184 5.77587 1.00035 4.84635 1.00035C3.91682 1.00035 3.02536 1.38184 2.36808 2.06089C1.71081 2.73994 1.34155 3.66092 1.34155 4.62124C1.34155 5.58157 1.71081 6.50255 2.36808 7.1816L3.04339 7.87928L7.99992 13L12.9564 7.87928L13.6318 7.1816C13.9573 6.84543 14.2156 6.44628 14.3917 6.00697C14.5679 5.56765 14.6586 5.09678 14.6586 4.62124C14.6586 4.14571 14.5679 3.67484 14.3917 3.23552C14.2156 2.79621 13.9573 2.39706 13.6318 2.06089Z" fill="#FF0040" stroke="#FF0040" stroke-width="2" stroke-linecap="round" stroke-linejoin="round"/>
</svg>
