<svg width="14" height="12" viewBox="0 0 14 12" fill="none" xmlns="http://www.w3.org/2000/svg">
<path d="M9.91666 11.25V10.0833C9.91666 9.46449 9.67083 8.871 9.23324 8.43342C8.79566 7.99583 8.20217 7.75 7.58333 7.75H2.91666C2.29782 7.75 1.70433 7.99583 1.26675 8.43342C0.829161 8.871 0.583328 9.46449 0.583328 10.0833V11.25M13.4167 11.25V10.0833C13.4163 9.56634 13.2442 9.06412 12.9275 8.65552C12.6107 8.24692 12.1672 7.95508 11.6667 7.82583M9.33333 0.825833C9.83524 0.954342 10.2801 1.24624 10.5978 1.65551C10.9155 2.06479 11.0879 2.56815 11.0879 3.08625C11.0879 3.60435 10.9155 4.10771 10.5978 4.51699C10.2801 4.92626 9.83524 5.21816 9.33333 5.34667M7.58333 3.08333C7.58333 4.372 6.53866 5.41667 5.24999 5.41667C3.96133 5.41667 2.91666 4.372 2.91666 3.08333C2.91666 1.79467 3.96133 0.75 5.24999 0.75C6.53866 0.75 7.58333 1.79467 7.58333 3.08333Z" stroke="#878B92" stroke-linecap="round" stroke-linejoin="round"/>
</svg>
