<svg width="20" height="20" viewBox="0 0 20 20" fill="none" xmlns="http://www.w3.org/2000/svg">
<g clip-path="url(#clip0_667_1786)">
<path d="M5.83268 9.1665L9.16602 1.6665C9.82906 1.6665 10.4649 1.9299 10.9338 2.39874C11.4026 2.86758 11.666 3.50346 11.666 4.1665V7.49984H16.3827C16.6243 7.4971 16.8636 7.54692 17.084 7.64585C17.3044 7.74478 17.5007 7.89045 17.6592 8.07277C17.8178 8.25508 17.9348 8.46969 18.0021 8.70171C18.0695 8.93374 18.0856 9.17763 18.0493 9.4165L16.8993 16.9165C16.8391 17.3139 16.6372 17.6762 16.3309 17.9365C16.0247 18.1968 15.6346 18.3377 15.2327 18.3332H5.83268M5.83268 9.1665V18.3332M5.83268 9.1665H3.33268C2.89065 9.1665 2.46673 9.3421 2.15417 9.65466C1.84161 9.96722 1.66602 10.3911 1.66602 10.8332V16.6665C1.66602 17.1085 1.84161 17.5325 2.15417 17.845C2.46673 18.1576 2.89065 18.3332 3.33268 18.3332H5.83268" stroke="#A4A4A4" stroke-width="2" stroke-linecap="round" stroke-linejoin="round"/>
</g>
<defs>
<clipPath id="clip0_667_1786">
<rect width="20" height="20" fill="white"/>
</clipPath>
</defs>
</svg>
