<svg width="39" height="39" viewBox="0 0 39 39" fill="none" xmlns="http://www.w3.org/2000/svg">
<g clip-path="url(#clip0_39_111)">
<path d="M37.375 30.875C37.375 31.737 37.0326 32.5636 36.4231 33.1731C35.8136 33.7826 34.987 34.125 34.125 34.125H4.875C4.01305 34.125 3.1864 33.7826 2.5769 33.1731C1.96741 32.5636 1.625 31.737 1.625 30.875V13C1.625 12.138 1.96741 11.3114 2.5769 10.7019C3.1864 10.0924 4.01305 9.75 4.875 9.75H11.375L14.625 4.875H24.375L27.625 9.75H34.125C34.987 9.75 35.8136 10.0924 36.4231 10.7019C37.0326 11.3114 37.375 12.138 37.375 13V30.875Z" stroke="#A4A4A4" stroke-width="4" stroke-linecap="round" stroke-linejoin="round"/>
<path d="M19.5 27.625C23.0899 27.625 26 24.7149 26 21.125C26 17.5351 23.0899 14.625 19.5 14.625C15.9101 14.625 13 17.5351 13 21.125C13 24.7149 15.9101 27.625 19.5 27.625Z" stroke="#A4A4A4" stroke-width="4" stroke-linecap="round" stroke-linejoin="round"/>
</g>
<defs>
<clipPath id="clip0_39_111">
<rect width="39" height="39" fill="white"/>
</clipPath>
</defs>
</svg>
