<svg width="23" height="21" viewBox="0 0 23 21" fill="none" xmlns="http://www.w3.org/2000/svg">
<path d="M10.6289 0.545574C11.0114 -0.133071 11.9886 -0.13307 12.3712 0.545575L15.2428 5.64043C15.3855 5.89361 15.6313 6.07218 15.9162 6.12966L21.6491 7.28638C22.4127 7.44046 22.7147 8.36991 22.1875 8.94341L18.2294 13.2489C18.0327 13.4629 17.9388 13.7518 17.9722 14.0405L18.6436 19.8503C18.7331 20.6241 17.9424 21.1986 17.2341 20.8744L11.9162 18.4405C11.6519 18.3195 11.3481 18.3195 11.0838 18.4405L5.76593 20.8744C5.05757 21.1986 4.26694 20.6241 4.35637 19.8503L5.02782 14.0405C5.06119 13.7518 4.96731 13.4629 4.77062 13.2489L0.812522 8.94341C0.285295 8.36991 0.58729 7.44046 1.35092 7.28638L7.08381 6.12966C7.36869 6.07218 7.61448 5.8936 7.75718 5.64043L10.6289 0.545574Z" fill="#D9D9D9"/>
</svg>
