<svg width="26" height="26" viewBox="0 0 26 26" fill="none" xmlns="http://www.w3.org/2000/svg">
<path d="M22.75 12.9998C21.6667 16.7916 16.7917 17.3333 13 21.6665C8.66667 18.4166 6.5 16.7916 3.25 12.9998C3.25 8.21337 6.5 3.24994 13 7.58317C19.5 3.24994 22.75 8.21337 22.75 12.9998Z" fill="#EA580C"/>
<path d="M4.82124 15.0674L12.3532 22.1429C12.6127 22.3866 12.7424 22.5085 12.8954 22.5385C12.9642 22.552 13.0351 22.552 13.104 22.5385C13.2569 22.5085 13.3867 22.3866 13.6461 22.1429L21.1781 15.0674C23.2973 13.0766 23.5546 9.80065 21.7723 7.5034L21.4372 7.07145C19.305 4.32329 15.0251 4.78418 13.5269 7.92328C13.3153 8.3667 12.6841 8.3667 12.4725 7.92328C10.9742 4.78418 6.69437 4.32329 4.56218 7.07145L4.22705 7.5034C2.4447 9.80065 2.70205 13.0766 4.82124 15.0674Z" stroke="#EA580C" stroke-width="2.16667"/>
</svg>
